<svg viewBox="0 0 52 52" xmlns="http://www.w3.org/2000/svg" width="52.000000"
     height="52.000000" fill="none" customFrame="#000000">
    <rect id="arrow" width="52.000000" height="52.000000" x="0.000000" y="0.000000"/>
    <path id="Ellipse 82"
          d="M52 26C52 40.3594 40.3594 52 26 52C11.6406 52 0 40.3594 0 26C0 11.6406 11.6406 0 26 0C40.3594 0 52 11.6406 52 26Z"
          fill="rgb(192,231,33)" fill-opacity="0" fill-rule="nonzero"/>
    <path id="Arrow 3"
          d="M30 24L33 24L33 28L30 28L30 24ZM30.1716 26L20.2721 16.1005C19.4801 15.3085 19.4801 14.064 20.2721 13.2721C21.064 12.4801 22.3085 12.4801 23.1005 13.2721L34.4142 24.5858C35.2062 25.3777 35.2062 26.6223 34.4142 27.4142L23.1005 38.7279C22.3085 39.5199 21.064 39.5199 20.2721 38.7279C19.4801 37.936 19.4801 36.6915 20.2721 35.8995L30.1716 26Z"
          fill="rgb(60,0,255)" fill-rule="nonzero"/>
</svg>
