<svg width="113" height="26" viewBox="0 0 113 26" fill="none" xmlns="http://www.w3.org/2000/svg">
    <path d="M0 10.9707V0.147968H4.47073C5.28103 0.147968 5.98035 0.294174 6.5687 0.586586C7.16057 0.875474 7.6168 1.29119 7.9374 1.83374C8.25799 2.37276 8.41829 3.0122 8.41829 3.75203C8.41829 4.50244 8.25447 5.14011 7.92683 5.66504C7.59919 6.18645 7.13415 6.58455 6.53171 6.85935C5.92927 7.13062 5.21585 7.26626 4.39146 7.26626H1.56423V5.20528H3.90528C4.29986 5.20528 4.62927 5.1542 4.8935 5.05203C5.16125 4.94634 5.36382 4.78781 5.50122 4.57642C5.63862 4.36152 5.70732 4.08672 5.70732 3.75203C5.70732 3.41734 5.63862 3.14079 5.50122 2.92236C5.36382 2.70041 5.16125 2.53482 4.8935 2.42561C4.62575 2.31287 4.29634 2.2565 3.90528 2.2565H2.61585V10.9707H0ZM6.09309 6.02439L8.78821 10.9707H5.93455L3.29228 6.02439H6.09309Z"
          fill="#363636"/>
    <path d="M12.1941 10.9707H9.38272L13.0343 0.147968H16.5169L20.1685 10.9707H17.3571L14.8152 2.8748H14.7307L12.1941 10.9707ZM11.8189 6.71138H17.6953V8.69837H11.8189V6.71138Z"
          fill="#363636"/>
    <path d="M25.3341 10.9707H21.3337V0.147968H25.3289C26.4316 0.147968 27.381 0.364634 28.1772 0.797968C28.977 1.22778 29.5935 1.84783 30.0268 2.65813C30.4602 3.46491 30.6768 4.43022 30.6768 5.55407C30.6768 6.68144 30.4602 7.65027 30.0268 8.46057C29.597 9.27087 28.9822 9.89268 28.1825 10.326C27.3828 10.7558 26.4333 10.9707 25.3341 10.9707ZM23.9496 8.74065H25.2337C25.8397 8.74065 26.3523 8.63848 26.7715 8.43415C27.1943 8.22629 27.5131 7.88984 27.728 7.4248C27.9465 6.95623 28.0557 6.33266 28.0557 5.55407C28.0557 4.77547 27.9465 4.15542 27.728 3.6939C27.5096 3.22886 27.1873 2.89417 26.761 2.68984C26.3382 2.48198 25.8168 2.37805 25.1967 2.37805H23.9496V8.74065Z"
          fill="#363636"/>
    <path d="M32.1671 10.9707V9.48049L37.4252 2.27236H32.1724V0.147968H40.7333V1.63821L35.4752 8.84634H40.728V10.9707H32.1671Z"
          fill="#363636"/>
    <path d="M42.3332 10.9707V0.147968H49.8796V2.27236H44.9491V4.49187H49.4938V6.62154H44.9491V8.84634H49.8796V10.9707H42.3332Z"
          fill="#363636"/>
    <path d="M53.9751 0.147968L56.3954 8.0748H56.4853L58.9056 0.147968H61.8332L58.1816 10.9707H54.6991L51.0475 0.147968H53.9751Z"
          fill="#363636"/>
    <path d="M65.6143 0.147968V10.9707H62.9985V0.147968H65.6143Z" fill="#363636"/>
    <path d="M77.0805 4.06911H74.4382C74.403 3.79783 74.3308 3.55298 74.2215 3.33455C74.1123 3.11612 73.9679 2.9294 73.7882 2.77439C73.6085 2.61938 73.3954 2.50136 73.1488 2.42033C72.9057 2.33577 72.6362 2.2935 72.3402 2.2935C71.8153 2.2935 71.3626 2.42209 70.9821 2.67927C70.6051 2.93645 70.3145 3.30813 70.1102 3.79431C69.9093 4.28049 69.8089 4.86883 69.8089 5.55935C69.8089 6.27805 69.9111 6.88049 70.1154 7.36667C70.3233 7.84932 70.614 8.21396 70.9874 8.46057C71.3644 8.70366 71.81 8.8252 72.3244 8.8252C72.6133 8.8252 72.8757 8.78821 73.1118 8.71423C73.3513 8.64024 73.561 8.53279 73.7407 8.39187C73.9239 8.24743 74.0736 8.07304 74.1898 7.8687C74.3096 7.66084 74.3924 7.42656 74.4382 7.16585L77.0805 7.18171C77.0347 7.66084 76.8955 8.13293 76.663 8.59797C76.434 9.06301 76.1187 9.48753 75.7171 9.87154C75.3155 10.252 74.8257 10.555 74.248 10.7805C73.6737 11.006 73.0149 11.1187 72.2715 11.1187C71.2921 11.1187 70.4149 10.9038 69.6398 10.474C68.8683 10.0407 68.2588 9.41003 67.8114 8.58211C67.364 7.7542 67.1402 6.74661 67.1402 5.55935C67.1402 4.36856 67.3675 3.35921 67.8219 2.5313C68.2764 1.70339 68.8912 1.07453 69.6663 0.644716C70.4413 0.214905 71.3098 0 72.2715 0C72.9268 0 73.5328 0.091599 74.0894 0.274797C74.6461 0.454471 75.1358 0.718699 75.5585 1.06748C75.9813 1.41274 76.3248 1.83726 76.589 2.34106C76.8533 2.84485 77.0171 3.42087 77.0805 4.06911Z"
          fill="#363636"/>
    <path d="M78.5773 10.9707V0.147968H81.1932V4.49187H85.4578V0.147968H88.0684V10.9707H85.4578V6.62154H81.1932V10.9707H78.5773Z"
          fill="#363636"/>
    <path d="M91.1625 11.124C90.782 11.124 90.4561 10.9901 90.1849 10.7224C89.9171 10.4546 89.785 10.1305 89.7885 9.75C89.785 9.37656 89.9171 9.05772 90.1849 8.7935C90.4561 8.52575 90.782 8.39187 91.1625 8.39187C91.5219 8.39187 91.8389 8.52575 92.1137 8.7935C92.392 9.05772 92.533 9.37656 92.5365 9.75C92.533 10.0037 92.466 10.2344 92.3357 10.4423C92.2088 10.6501 92.0415 10.8157 91.8336 10.939C91.6293 11.0623 91.4056 11.124 91.1625 11.124Z"
          fill="#363636"/>
    <path d="M4.00041 25.852H0V15.0293H3.99512C5.09783 15.0293 6.04729 15.2459 6.8435 15.6793C7.64323 16.1091 8.25976 16.7291 8.69309 17.5394C9.12642 18.3462 9.34309 19.3115 9.34309 20.4354C9.34309 21.5627 9.12642 22.5316 8.69309 23.3419C8.26328 24.1522 7.64851 24.774 6.84878 25.2073C6.04905 25.6371 5.09959 25.852 4.00041 25.852ZM2.61585 23.622H3.9C4.50596 23.622 5.01856 23.5198 5.43781 23.3154C5.86057 23.1076 6.1794 22.7711 6.39431 22.3061C6.61274 21.8375 6.72195 21.214 6.72195 20.4354C6.72195 19.6568 6.61274 19.0367 6.39431 18.5752C6.17588 18.1102 5.85352 17.7755 5.42724 17.5711C5.00447 17.3633 4.48306 17.2593 3.86301 17.2593H2.61585V23.622Z"
          fill="#363636"/>
    <path d="M10.8703 25.852V15.0293H18.4167V17.1537H13.4862V19.3732H18.0309V21.5028H13.4862V23.7276H18.4167V25.852H10.8703Z"
          fill="#363636"/>
    <path d="M25.9049 18.274C25.8696 17.8864 25.7129 17.5852 25.4346 17.3703C25.1598 17.1519 24.7669 17.0427 24.2561 17.0427C23.9179 17.0427 23.636 17.0867 23.4106 17.1748C23.1851 17.2629 23.016 17.3844 22.9033 17.5394C22.7905 17.6909 22.7324 17.8653 22.7289 18.0626C22.7218 18.2247 22.7535 18.3673 22.824 18.4907C22.898 18.614 23.0037 18.7232 23.1411 18.8183C23.282 18.9099 23.4511 18.9909 23.6484 19.0614C23.8457 19.1318 24.0676 19.1935 24.3142 19.2463L25.2443 19.4577C25.7798 19.574 26.2519 19.729 26.6606 19.9228C27.0728 20.1165 27.418 20.3473 27.6963 20.615C27.9782 20.8828 28.1913 21.1911 28.3358 21.5398C28.4802 21.8886 28.5542 22.2797 28.5577 22.713C28.5542 23.3965 28.3816 23.9831 28.0398 24.4728C27.6981 24.9625 27.2066 25.3377 26.5654 25.5984C25.9278 25.8591 25.158 25.9894 24.2561 25.9894C23.3507 25.9894 22.5615 25.8538 21.8886 25.5825C21.2157 25.3112 20.6925 24.899 20.3191 24.3459C19.9457 23.7928 19.7537 23.0935 19.7431 22.248H22.248C22.2691 22.5967 22.3625 22.8874 22.528 23.1199C22.6936 23.3524 22.9209 23.5286 23.2098 23.6484C23.5022 23.7682 23.8404 23.828 24.2244 23.828C24.5767 23.828 24.8762 23.7805 25.1228 23.6854C25.3729 23.5902 25.5649 23.4581 25.6988 23.289C25.8327 23.1199 25.9014 22.9262 25.9049 22.7077C25.9014 22.5034 25.8379 22.329 25.7146 22.1846C25.5913 22.0366 25.4011 21.9098 25.1439 21.8041C24.8902 21.6949 24.5661 21.5944 24.1715 21.5028L23.0406 21.2386C22.1035 21.0237 21.3654 20.6767 20.8264 20.1976C20.2874 19.7149 20.0196 19.0631 20.0232 18.2423C20.0196 17.5729 20.1993 16.9863 20.5622 16.4825C20.9251 15.9787 21.4271 15.5859 22.0683 15.3041C22.7095 15.0222 23.4405 14.8813 24.2614 14.8813C25.0999 14.8813 25.8274 15.024 26.4439 15.3093C27.064 15.5912 27.5448 15.9875 27.8866 16.4984C28.2283 17.0092 28.4027 17.6011 28.4098 18.274H25.9049Z"
          fill="#363636"/>
    <path d="M32.4947 15.0293V25.852H29.8789V15.0293H32.4947Z" fill="#363636"/>
    <path d="M41.2393 18.5646C41.1794 18.3427 41.0914 18.1472 40.9751 17.9781C40.8588 17.8054 40.7162 17.6592 40.5471 17.5394C40.3779 17.4196 40.1842 17.3298 39.9658 17.2699C39.7473 17.2065 39.5078 17.1748 39.2471 17.1748C38.7221 17.1748 38.2677 17.3016 37.8836 17.5553C37.5032 17.8089 37.209 18.1789 37.0011 18.665C36.7933 19.1477 36.6893 19.7343 36.6893 20.4248C36.6893 21.1188 36.7897 21.7107 36.9905 22.2004C37.1914 22.6901 37.482 23.0636 37.8625 23.3207C38.243 23.5779 38.7045 23.7065 39.2471 23.7065C39.7262 23.7065 40.1313 23.629 40.4625 23.474C40.7972 23.3154 41.0508 23.0917 41.2235 22.8028C41.3961 22.514 41.4824 22.174 41.4824 21.7829L41.9686 21.8411H39.3369V19.9333H44.0032V21.3654C44.0032 22.3343 43.7971 23.164 43.3849 23.8545C42.9762 24.545 42.4125 25.0752 41.6938 25.4451C40.9786 25.815 40.156 26 39.2259 26C38.1937 26 37.2865 25.7763 36.5044 25.3289C35.7223 24.8814 35.1128 24.2438 34.6759 23.4159C34.2391 22.5844 34.0206 21.598 34.0206 20.4565C34.0206 19.5687 34.1527 18.7813 34.417 18.0943C34.6812 17.4038 35.0494 16.819 35.5214 16.3398C35.9971 15.8607 36.5466 15.4978 37.1702 15.2512C37.7973 15.0046 38.472 14.8813 39.1942 14.8813C39.8213 14.8813 40.4044 14.9711 40.9434 15.1508C41.4859 15.3305 41.9651 15.5841 42.3808 15.9118C42.8 16.2394 43.14 16.6287 43.4007 17.0797C43.6614 17.5306 43.8235 18.0256 43.8869 18.5646H41.2393Z"
          fill="#363636"/>
    <path d="M54.7559 15.0293V25.852H52.5364L48.2295 19.6057H48.1608V25.852H45.5449V15.0293H47.7961L52.0555 21.265H52.1453V15.0293H54.7559Z"
          fill="#363636"/>
    <path d="M62.2507 18.274C62.2155 17.8864 62.0587 17.5852 61.7804 17.3703C61.5056 17.1519 61.1128 17.0427 60.6019 17.0427C60.2637 17.0427 59.9819 17.0867 59.7564 17.1748C59.5309 17.2629 59.3618 17.3844 59.2491 17.5394C59.1363 17.6909 59.0782 17.8653 59.0747 18.0626C59.0676 18.2247 59.0994 18.3673 59.1698 18.4907C59.2438 18.614 59.3495 18.7232 59.4869 18.8183C59.6278 18.9099 59.7969 18.9909 59.9942 19.0614C60.1915 19.1318 60.4134 19.1935 60.6601 19.2463L61.5901 19.4577C62.1256 19.574 62.5977 19.729 63.0064 19.9228C63.4186 20.1165 63.7639 20.3473 64.0422 20.615C64.324 20.8828 64.5372 21.1911 64.6816 21.5398C64.826 21.8886 64.9 22.2797 64.9036 22.713C64.9 23.3965 64.7274 23.9831 64.3857 24.4728C64.0439 24.9625 63.5525 25.3377 62.9113 25.5984C62.2736 25.8591 61.5038 25.9894 60.6019 25.9894C59.6965 25.9894 58.9073 25.8538 58.2345 25.5825C57.5616 25.3112 57.0384 24.899 56.6649 24.3459C56.2915 23.7928 56.0995 23.0935 56.0889 22.248H58.5938C58.6149 22.5967 58.7083 22.8874 58.8739 23.1199C59.0395 23.3524 59.2667 23.5286 59.5556 23.6484C59.848 23.7682 60.1862 23.828 60.5702 23.828C60.9225 23.828 61.222 23.7805 61.4686 23.6854C61.7187 23.5902 61.9107 23.4581 62.0446 23.289C62.1785 23.1199 62.2472 22.9262 62.2507 22.7077C62.2472 22.5034 62.1838 22.329 62.0605 22.1846C61.9372 22.0366 61.7469 21.9098 61.4897 21.8041C61.2361 21.6949 60.912 21.5944 60.5174 21.5028L59.3865 21.2386C58.4494 21.0237 57.7113 20.6767 57.1723 20.1976C56.6332 19.7149 56.3655 19.0631 56.369 18.2423C56.3655 17.5729 56.5452 16.9863 56.908 16.4825C57.2709 15.9787 57.7729 15.5859 58.4141 15.3041C59.0553 15.0222 59.7863 14.8813 60.6072 14.8813C61.4457 14.8813 62.1732 15.024 62.7897 15.3093C63.4098 15.5912 63.8907 15.9875 64.2324 16.4984C64.5742 17.0092 64.7485 17.6011 64.7556 18.274H62.2507Z"
          fill="#363636"/>
    <path d="M65.8706 17.1537V15.0293H75.0182V17.1537H71.7365V25.852H69.1576V17.1537H65.8706Z" fill="#363636"/>
    <path d="M82.8433 15.0293H85.4539V22.0102C85.4539 22.8169 85.2619 23.5198 84.8778 24.1187C84.4938 24.7141 83.9583 25.1756 83.2713 25.5033C82.5844 25.8274 81.7864 25.9894 80.8774 25.9894C79.9579 25.9894 79.1547 25.8274 78.4677 25.5033C77.7807 25.1756 77.2469 24.7141 76.8665 24.1187C76.486 23.5198 76.2957 22.8169 76.2957 22.0102V15.0293H78.9116V21.7829C78.9116 22.1564 78.9926 22.4893 79.1547 22.7817C79.3203 23.0741 79.551 23.3031 79.8469 23.4687C80.1429 23.6343 80.4864 23.7171 80.8774 23.7171C81.2685 23.7171 81.6102 23.6343 81.9026 23.4687C82.1986 23.3031 82.4293 23.0741 82.5949 22.7817C82.7605 22.4893 82.8433 22.1564 82.8433 21.7829V15.0293Z"
          fill="#363636"/>
    <path d="M91.0938 25.852H87.0934V15.0293H91.0885C92.1912 15.0293 93.1407 15.2459 93.9369 15.6793C94.7366 16.1091 95.3531 16.7291 95.7865 17.5394C96.2198 18.3462 96.4365 19.3115 96.4365 20.4354C96.4365 21.5627 96.2198 22.5316 95.7865 23.3419C95.3567 24.1522 94.7419 24.774 93.9422 25.2073C93.1424 25.6371 92.193 25.852 91.0938 25.852ZM89.7092 23.622H90.9934C91.5994 23.622 92.112 23.5198 92.5312 23.3154C92.954 23.1076 93.2728 22.7711 93.4877 22.3061C93.7061 21.8375 93.8153 21.214 93.8153 20.4354C93.8153 19.6568 93.7061 19.0367 93.4877 18.5752C93.2693 18.1102 92.9469 17.7755 92.5206 17.5711C92.0979 17.3633 91.5765 17.2593 90.9564 17.2593H89.7092V23.622Z"
          fill="#363636"/>
    <path d="M100.58 15.0293V25.852H97.9637V15.0293H100.58Z" fill="#363636"/>
    <path d="M112.437 20.4407C112.437 21.6314 112.208 22.6408 111.75 23.4687C111.292 24.2966 110.672 24.9255 109.89 25.3553C109.111 25.7851 108.237 26 107.268 26C106.296 26 105.421 25.7833 104.642 25.35C103.863 24.9167 103.245 24.2878 102.787 23.4634C102.333 22.6355 102.105 21.6279 102.105 20.4407C102.105 19.2499 102.333 18.2405 102.787 17.4126C103.245 16.5847 103.863 15.9558 104.642 15.526C105.421 15.0962 106.296 14.8813 107.268 14.8813C108.237 14.8813 109.111 15.0962 109.89 15.526C110.672 15.9558 111.292 16.5847 111.75 17.4126C112.208 18.2405 112.437 19.2499 112.437 20.4407ZM109.763 20.4407C109.763 19.736 109.662 19.1407 109.462 18.6545C109.264 18.1683 108.979 17.8001 108.605 17.55C108.236 17.2999 107.79 17.1748 107.268 17.1748C106.751 17.1748 106.305 17.2999 105.932 17.55C105.558 17.8001 105.271 18.1683 105.07 18.6545C104.873 19.1407 104.774 19.736 104.774 20.4407C104.774 21.1453 104.873 21.7407 105.07 22.2268C105.271 22.713 105.558 23.0812 105.932 23.3313C106.305 23.5814 106.751 23.7065 107.268 23.7065C107.79 23.7065 108.236 23.5814 108.605 23.3313C108.979 23.0812 109.264 22.713 109.462 22.2268C109.662 21.7407 109.763 21.1453 109.763 20.4407Z"
          fill="#363636"/>
</svg>
