<svg width="278" height="24" viewBox="0 0 278 24" fill="none" xmlns="http://www.w3.org/2000/svg">
    <path fill-rule="evenodd" clip-rule="evenodd" d="M71.3782 1.18262H71.3614H66.3975L54.3664 22.8517L54.3496 22.9021H58.9769L68.8878 5.06589L78.7819 22.8853V22.9021H83.4261L71.3782 1.18262Z" fill="#3C00FF"/>
    <path fill-rule="evenodd" clip-rule="evenodd" d="M222.801 1.18262L212.89 19.002L203.013 1.18262H202.996H198.352L210.399 22.8853L210.416 22.9021H215.38L227.411 1.21624L227.445 1.18262H222.801Z" fill="#3C00FF"/>
    <path fill-rule="evenodd" clip-rule="evenodd" d="M18.9122 5.25026C16.6743 4.6955 14.2849 4.40972 11.7609 4.40972C9.23687 4.40972 7.50372 4.59464 6.52778 4.9981C5.60231 5.40156 5.13116 6.14123 5.13116 7.23393C5.13116 8.14171 5.535 8.78052 6.37634 9.16716C7.21767 9.537 8.93399 9.82278 11.5758 10.0077C17.768 10.4784 20.4434 12.3948 20.4434 16.4966C20.4434 19.0183 19.5348 20.7498 17.768 21.7752C16.0012 22.8007 13.0733 23.305 9.0013 23.305C5.73692 23.305 3.02783 23.0192 0.874017 22.4645L1.71535 18.7325C3.83551 19.2872 6.2249 19.573 8.90034 19.573C11.5758 19.573 13.2248 19.3881 14.1839 18.9846C15.1767 18.5812 15.6815 17.8415 15.6815 16.7152C15.6815 14.9164 14.7728 14.2272 9.01812 13.7061C3.16244 13.3026 0.436523 11.5879 0.436523 7.73825C0.436523 2.72865 4.03743 0.677734 11.7945 0.677734C14.9916 0.677734 17.6165 0.963517 19.7031 1.51827L18.929 5.25026H18.9122Z" fill="#363636"/>
    <path fill-rule="evenodd" clip-rule="evenodd" d="M41.494 4.74629V22.8683H37.0854V4.74629H27.7803V1.19922H50.7655V4.74629H41.494Z" fill="#363636"/>
    <path fill-rule="evenodd" clip-rule="evenodd" d="M108.447 1.41769L107.791 5.11605C106.26 4.67897 104.375 4.46043 102.036 4.46043C100.858 4.46043 99.8823 4.49405 99.142 4.56129C97.6444 4.66216 96.0627 5.032 95.2887 5.68762C93.9762 6.74669 93.3873 8.51182 93.3873 11.874C93.3873 15.2361 93.8584 17.1021 95.3223 18.178C96.8199 19.2707 98.553 19.4892 102.036 19.4892C104.308 19.4892 106.209 19.2707 107.791 18.8672L108.447 22.6328C106.276 23.1035 103.837 23.3221 101.144 23.3221C96.7862 23.3221 93.8921 22.6328 91.7551 20.9013C89.6349 19.153 88.6758 16.2448 88.6758 11.8572C88.6758 7.46955 89.6349 4.61172 91.7887 2.96427C93.9425 1.24958 96.7694 0.694824 101.161 0.694824C103.803 0.694824 106.226 0.946983 108.464 1.43449L108.447 1.41769Z" fill="#363636"/>
    <path fill-rule="evenodd" clip-rule="evenodd" d="M135.118 22.8683C132.543 19.5734 130.137 16.9341 127.899 14.9168C125.695 12.8995 124.046 11.7396 123.019 11.4706C124.163 10.8486 125.796 9.60459 127.899 7.77222C130.019 5.93985 132.156 3.73764 134.344 1.21603H139.947C137.574 3.78808 135.404 6.00709 133.452 7.80584C131.5 9.57097 130.086 10.6973 129.245 11.168C130.154 11.6051 131.668 12.8491 133.822 14.9336C135.976 16.9845 138.264 19.6238 140.788 22.8851H135.134L135.118 22.8683ZM122.8 22.8683H118.442V1.19922H122.8V22.8683Z" fill="#363636"/>
    <path fill-rule="evenodd" clip-rule="evenodd" d="M149.285 1.19922H153.626V19.2876H166.633V22.8683H149.285V1.19922Z" fill="#363636"/>
    <path fill-rule="evenodd" clip-rule="evenodd" d="M173.616 1.19922H192.748V4.74629H177.957V9.75589H188.508V13.2693H177.957V19.3212H192.748V22.8683H173.616V1.19922Z" fill="#363636"/>
    <path fill-rule="evenodd" clip-rule="evenodd" d="M233.032 1.19922H252.164V4.74629H237.39V9.75589H247.924V13.2693H237.39V19.3212H252.164V22.8683H233.032V1.19922Z" fill="#363636"/>
    <path fill-rule="evenodd" clip-rule="evenodd" d="M259.921 1.19922H264.279V19.2876H277.286V22.8683H259.921V1.19922Z" fill="#363636"/>
    <path d="M127.023 9.28418H120.764V13.6382H127.023V9.28418Z" fill="#363636"/>
</svg>
