<svg width="60" height="60" viewBox="0 0 60 60" fill="none" xmlns="http://www.w3.org/2000/svg">
    <rect width="60" height="60" rx="10" fill="#29A0DC"/>
    <g clip-path="url(#clip0_122_152)">
        <path d="M48.5123 16.7745C48.4156 18.1235 47.6373 22.8426 46.8564 27.9468L44.4244 43.0679C44.4244 43.0679 44.2287 45.2754 42.5751 45.6678C40.9217 46.0604 38.1948 44.3214 37.7065 43.9363C37.3172 43.6468 30.4059 39.3128 27.875 37.1936C27.1932 36.6148 26.4148 35.4595 27.9741 34.1105C31.4768 30.922 35.6588 26.9853 38.1948 24.481C39.3624 23.3233 40.53 20.6278 35.6638 23.9022L21.9428 33.0533C21.9428 33.0533 20.386 34.0173 17.4658 33.1515C14.5456 32.2856 11.137 31.1279 11.137 31.1279C11.137 31.1279 8.80176 29.6833 12.7929 28.143L35.4729 18.8961C37.704 17.9322 45.3045 14.8515 45.3045 14.8515C45.3045 14.8515 48.8098 13.5001 48.5123 16.7745Z" fill="white"/>
    </g>
    <defs>
        <clipPath id="clip0_122_152">
            <rect width="39.5859" height="39.5859" fill="white" transform="translate(10.2002 10.1853)"/>
        </clipPath>
    </defs>
</svg>
