<svg width="83" height="30" viewBox="0 0 83 30" fill="none" xmlns="http://www.w3.org/2000/svg">
    <path d="M40.317 10.2471V0.567627H10.211C4.86327 0.567627 0.513672 4.92499 0.513672 10.2822V20.0288C0.513672 25.3829 4.86327 29.7402 10.211 29.7402H29.5482L30.591 28.341L31.6337 26.9386L34.6727 22.8624L35.7154 21.46L36.7582 20.0608H10.1727V10.2503H40.3106L40.317 10.2471Z" fill="#3C00FF"/>
    <path d="M62.9646 3.93473C61.0194 1.39506 58.4906 -0.00415039 55.847 -0.00415039C53.2035 -0.00415039 50.6301 1.43659 48.7646 3.94751L36.7618 20.0576L35.719 21.4568L34.6762 22.8592L31.6373 26.9355L30.5945 28.3379L29.5518 29.7371H41.7778L55.8502 10.3654L69.9705 29.7371H82.1966L62.9646 3.93153V3.93473Z" fill="#C5EB00"/>
</svg>
