<svg width="108" height="84" viewBox="0 0 108 84" fill="none" xmlns="http://www.w3.org/2000/svg">
<path d="M0 0H108V66H0V0Z" fill="#185188"/>
<path d="M0 66H108V84H0V66Z" fill="white"/>
<path d="M6.94508 83H5.18727V79.3438H1.75954V83H0.00172424V74.4688H1.75954V77.9258H5.18727V74.4688H6.94508V83Z" fill="#175389"/>
<path d="M16.2304 81.2422H13.1483L12.5624 83H10.6933L13.869 74.4688H15.498L18.6913 83H16.8222L16.2304 81.2422ZM13.623 79.8184H15.7558L14.6835 76.625L13.623 79.8184Z" fill="#175389"/>
<path d="M25.5098 78.5L27.0625 74.4688H28.961L25.9786 81.5059L25.7383 81.9688C25.2969 82.7383 24.6211 83.123 23.711 83.123L23.0957 83.0996L23.0782 81.6875C23.1719 81.7031 23.3243 81.7109 23.5352 81.7109C23.7813 81.7109 23.9786 81.668 24.127 81.582C24.2793 81.4961 24.4063 81.3379 24.5079 81.1074L24.7246 80.5508L21.7305 74.4688H23.6231L25.5098 78.5Z" fill="#175389"/>
<path d="M35.4982 79.5137H34.4846V83H32.7267V74.4688H34.4846V77.8848H35.2873L37.3732 74.4688H39.5178L36.8869 78.5059L39.7931 83H37.6955L35.4982 79.5137Z" fill="#175389"/>
<path d="M48.1116 81.2422H45.0296L44.4437 83H42.5745L45.7503 74.4688H47.3792L50.5726 83H48.7034L48.1116 81.2422ZM45.5042 79.8184H47.637L46.5648 76.625L45.5042 79.8184Z" fill="#175389"/>
<path d="M65.4225 75.3945H61.3092V77.9492H63.4303C64.3209 77.9609 65.0162 78.1895 65.5162 78.6348C66.0162 79.0801 66.2662 79.6855 66.2662 80.4512C66.2662 81.2207 66.0143 81.834 65.5103 82.291C65.0064 82.748 64.3189 82.9844 63.4478 83H60.1783V74.4688H65.4225V75.3945ZM61.3092 78.875V82.0801H63.3658C63.9244 82.0801 64.358 81.9316 64.6666 81.6348C64.9791 81.3379 65.1353 80.9395 65.1353 80.4395C65.1353 79.959 64.985 79.5801 64.6842 79.3027C64.3873 79.0254 63.9635 78.8828 63.4127 78.875H61.3092Z" fill="#175389"/>
<path d="M75.9031 75.3945H71.7898V83H70.6589V74.4688H75.9031V75.3945Z" fill="#175389"/>
<path d="M83.0438 79.4199L85.0067 74.4688H86.3133L83.2958 81.5762C83.0926 82.0293 82.9032 82.3516 82.7274 82.543C82.5516 82.7305 82.3446 82.875 82.1063 82.9766C81.8719 83.0742 81.577 83.123 81.2215 83.123C80.913 83.123 80.7157 83.1055 80.6298 83.0703L80.6649 82.1797L81.1981 82.2031C81.6083 82.2031 81.913 82.0059 82.1122 81.6113L82.2587 81.3066L82.4813 80.7852L79.5751 74.4688H80.8348L83.0438 79.4199Z" fill="#175389"/>
<path d="M95.8623 74.4688H96.9873V83H95.8623V76.4258L91.6611 83H90.5303V74.4688H91.6611V81.043L95.8623 74.4688Z" fill="#175389"/>
<path d="M102.985 79.6602V83H101.86V74.4688H105.007C105.941 74.4688 106.671 74.707 107.198 75.1836C107.73 75.6602 107.995 76.291 107.995 77.0762C107.995 77.9043 107.735 78.543 107.216 78.9922C106.7 79.4375 105.96 79.6602 104.995 79.6602H102.985ZM102.985 78.7402H105.007C105.609 78.7402 106.069 78.5996 106.39 78.3184C106.71 78.0332 106.87 77.623 106.87 77.0879C106.87 76.5801 106.71 76.1738 106.39 75.8691C106.069 75.5645 105.63 75.4062 105.071 75.3945H102.985V78.7402Z" fill="#175389"/>
<path fill-rule="evenodd" clip-rule="evenodd" d="M89 35H78V53H81V45.9091H84.9736L89 53H92.6147L88.5222 45.9091H89C90.4629 45.9091 91.3346 44.7589 91.7605 43.7831C92.1967 42.7839 92.375 41.5708 92.375 40.4545C92.375 39.3383 92.1967 38.1252 91.7605 37.126C91.3346 36.1502 90.4629 35 89 35ZM88.9104 42.6364H81V38.2727H88.9104C88.9422 38.3144 88.9908 38.393 89.052 38.5331C89.2408 38.9657 89.375 39.6617 89.375 40.4545C89.375 41.2474 89.2408 41.9433 89.052 42.376C88.9908 42.5161 88.9422 42.5947 88.9104 42.6364ZM88.8684 38.2314C88.8687 38.2295 88.8768 38.2338 88.8916 38.25C88.8755 38.2414 88.8681 38.2333 88.8684 38.2314ZM88.8684 42.6777C88.8681 42.6757 88.8755 42.6676 88.8916 42.6591C88.8768 42.6753 88.8687 42.6796 88.8684 42.6777Z" fill="white"/>
<path fill-rule="evenodd" clip-rule="evenodd" d="M53 48.0909V35H56V48.0909C56 48.2837 56.0897 48.6586 56.8732 49.073C57.6421 49.4797 58.7764 49.7273 60 49.7273C61.2236 49.7273 62.3579 49.4797 63.1268 49.073C63.9103 48.6586 64 48.2837 64 48.0909V35H67V48.0909C67 50.0799 65.7147 51.3414 64.4357 52.0179C63.1421 52.7021 61.5264 53 60 53C58.4736 53 56.8579 52.7021 55.5643 52.0179C54.2853 51.3414 53 50.0799 53 48.0909Z" fill="white"/>
<path fill-rule="evenodd" clip-rule="evenodd" d="M79.3226 17.1164C80.2524 15.3936 81.8062 14 84 14H91V17.1765H84C83.1938 17.1765 82.4976 17.6358 81.9274 18.6924C81.3403 19.7802 81 21.3421 81 23C81 24.6579 81.3403 26.2198 81.9274 27.3076C82.4976 28.3642 83.1938 28.8235 84 28.8235H91V32H84C81.8062 32 80.2524 30.6064 79.3226 28.8836C78.4097 27.1919 78 25.048 78 23C78 20.952 78.4097 18.8081 79.3226 17.1164Z" fill="white"/>
<path fill-rule="evenodd" clip-rule="evenodd" d="M55.3226 17.1164C56.2524 15.3936 57.8062 14 60 14H67V17.1765H60C59.1938 17.1765 58.4976 17.6358 57.9274 18.6924C57.3403 19.7802 57 21.3421 57 23C57 24.6579 57.3403 26.2198 57.9274 27.3076C58.4976 28.3642 59.1938 28.8235 60 28.8235H67V32H60C57.8062 32 56.2524 30.6064 55.3226 28.8836C54.4097 27.1919 54 25.048 54 23C54 20.952 54.4097 18.8081 55.3226 17.1164Z" fill="white"/>
<path fill-rule="evenodd" clip-rule="evenodd" d="M80 21.5H108V24.5H80V21.5Z" fill="white"/>
<path fill-rule="evenodd" clip-rule="evenodd" d="M27 38.1765H17V35H27C28.4569 35 29.5488 35.8044 30.2168 36.8653C30.8552 37.8792 31.125 39.132 31.125 40.2941C31.125 41.4562 30.8552 42.7091 30.2168 43.7229C30.1573 43.8174 30.0944 43.9099 30.0282 44C30.0944 44.0901 30.1573 44.1826 30.2168 44.2771C30.8552 45.2909 31.125 46.5438 31.125 47.7059C31.125 48.868 30.8552 50.1208 30.2168 51.1347C29.5488 52.1956 28.4569 53 27 53H17V49.8235H27C27.2931 49.8235 27.5137 49.7015 27.7207 49.3727C27.9573 48.9968 28.125 48.3968 28.125 47.7059C28.125 47.015 27.9573 46.415 27.7207 46.0391C27.5137 45.7103 27.2931 45.5882 27 45.5882H0V42.4118L27 42.4118C27.2931 42.4118 27.5137 42.2897 27.7207 41.9609C27.9573 41.585 28.125 40.985 28.125 40.2941C28.125 39.6032 27.9573 39.0032 27.7207 38.6273C27.5137 38.2985 27.2931 38.1765 27 38.1765Z" fill="white"/>
<path fill-rule="evenodd" clip-rule="evenodd" d="M71 28V14H74V28H71Z" fill="white"/>
<path fill-rule="evenodd" clip-rule="evenodd" d="M71 53V35H74V53H71Z" fill="white"/>
<path fill-rule="evenodd" clip-rule="evenodd" d="M34.7601 15.9583C35.3149 14.9304 36.3062 14 37.75 14H48.75V17.1765L37.7482 17.1765C37.691 17.1764 37.5581 17.1763 37.3649 17.5343C37.1528 17.9272 37 18.5627 37 19.2941C37 20.0256 37.1528 20.661 37.3649 21.0539C37.5581 21.4119 37.691 21.4118 37.7482 21.4118L45.75 21.4118C47.1938 21.4118 48.1851 22.3422 48.7399 23.3701C49.2778 24.3669 49.5 25.5844 49.5 26.7059C49.5 27.8274 49.2778 29.0449 48.7399 30.0417C48.1851 31.0696 47.1938 32 45.75 32H34.75V28.8235H45.7518C45.809 28.8236 45.9419 28.8237 46.1351 28.4657C46.3472 28.0728 46.5 27.4373 46.5 26.7059C46.5 25.9744 46.3472 25.339 46.1351 24.9461C45.9419 24.5881 45.809 24.5882 45.7518 24.5882H37.75C36.3062 24.5882 35.3149 23.6578 34.7601 22.6299C34.2222 21.6331 34 20.4156 34 19.2941C34 18.1726 34.2222 16.9551 34.7601 15.9583Z" fill="white"/>
<path fill-rule="evenodd" clip-rule="evenodd" d="M34.7601 36.9583C35.3149 35.9304 36.3062 35 37.75 35H48.75V38.1765L37.7482 38.1765C37.691 38.1764 37.5581 38.1763 37.3649 38.5343C37.1528 38.9272 37 39.5627 37 40.2941C37 41.0256 37.1528 41.661 37.3649 42.0539C37.5581 42.4119 37.691 42.4118 37.7482 42.4118L45.75 42.4118C47.1938 42.4118 48.1851 43.3422 48.7399 44.3701C49.2778 45.3669 49.5 46.5844 49.5 47.7059C49.5 48.8274 49.2778 50.0449 48.7399 51.0417C48.1851 52.0696 47.1938 53 45.75 53H34.75V49.8235H45.7518C45.809 49.8236 45.9419 49.8237 46.1351 49.4657C46.3472 49.0728 46.5 48.4373 46.5 47.7059C46.5 46.9744 46.3472 46.339 46.1351 45.9461C45.9419 45.5881 45.809 45.5882 45.7518 45.5882H37.75C36.3062 45.5882 35.3149 44.6578 34.7601 43.6299C34.2222 42.6331 34 41.4156 34 40.2941C34 39.1726 34.2222 37.9551 34.7601 36.9583Z" fill="white"/>
<path fill-rule="evenodd" clip-rule="evenodd" d="M71 33V30H74V33H71Z" fill="white"/>
</svg>
