<svg width="724" height="242" viewBox="0 0 724 242" fill="none" xmlns="http://www.w3.org/2000/svg">
    <g clip-path="url(#clip0_91_1074)">
        <path d="M172.613 179.625H19.6823C8.82219 179.625 0 188.438 0 199.287V222.338C0 233.187 8.82219 242 19.6823 242H87.7834V225.727H16.2901V195.886H121.034V242H137.324V195.886H172.626V179.612L172.613 179.625Z" fill="#3C00FF"/>
        <path d="M329.709 179.625H261.608V241.974L219.999 186.287C216.723 181.88 211.745 178.26 205.863 178.26C199.982 178.26 195.003 181.867 191.611 186.287L149.977 242H170.678L179.5 230.017H232.098L240.92 242H277.885V225.727H329.696C340.556 225.727 349.379 216.914 349.379 206.065V199.287C349.379 188.438 340.556 179.625 329.696 179.625H329.709ZM191.263 213.757L205.747 193.863L220.232 213.757H191.276H191.263ZM333.114 209.453H277.898V195.899H333.114V209.453Z" fill="#3C00FF"/>
        <path d="M439.885 179.625H352.991V195.898H388.293V242H404.583V195.898H439.885V179.625Z" fill="#3C00FF"/>
        <path d="M704.317 202.676H649.565V195.898H721.059V179.625H652.958C642.098 179.625 633.275 188.438 633.275 199.287V241.974L591.667 186.299C588.391 181.893 583.412 178.272 577.53 178.272C571.649 178.272 566.67 181.88 563.278 186.299L525.281 237.155L487.284 186.299C483.891 181.893 479.029 178.272 473.031 178.272C467.034 178.272 462.171 181.88 458.895 186.299L417.261 242.013H437.962L473.031 193.876L508.217 242.013H542.358L551.18 230.03H603.778L612.6 242.013H704.33C715.19 242.013 724.012 233.2 724.012 222.351C724.012 211.502 715.19 202.689 704.33 202.689L704.317 202.676ZM562.93 213.757L577.414 193.863L591.899 213.757H562.943H562.93ZM707.709 225.726H649.565V218.949H707.709V225.726Z" fill="#3C00FF"/>
        <path d="M375.421 41.347V2.3064H253.651C232.022 2.3064 214.429 19.8811 214.429 41.4887V80.7998C214.429 102.395 232.022 119.969 253.651 119.969H331.864L336.082 114.326L340.3 108.669L352.591 92.2285L356.809 86.5722L361.027 80.9287H253.497V41.3598H375.395L375.421 41.347Z" fill="#3C00FF"/>
        <path d="M467.023 15.8868C459.155 5.64349 448.927 0 438.234 0C427.542 0 417.133 5.81099 409.588 15.9383L361.04 80.9158L356.823 86.5593L352.605 92.2156L340.313 108.656L336.096 114.313L331.878 119.956H381.329L438.247 41.8237L495.359 119.956H544.81L467.023 15.8739V15.8868Z" fill="#C5EB00"/>
    </g>
    <defs>
        <clipPath id="clip0_91_1074">
            <rect width="724" height="242" fill="white"/>
        </clipPath>
    </defs>
</svg>
